<?xml version="1.0" encoding="UTF-8"?>
<svg xmlns="http://www.w3.org/2000/svg" version="1.1" viewBox="0 0 792 612">
  <defs>
    <style>
      .cls-1 {
        fill: #80bc00;
      }

      .cls-1, .cls-2, .cls-3, .cls-4 {
        stroke-width: 0px;
      }

      .cls-2 {
        fill: #010101;
      }

      .cls-3 {
        fill: #00a6ce;
      }

      .cls-4 {
        fill: #fff;
      }
    </style>
  </defs>
  <g id="Layer_1" data-name="Layer 1">
    <ellipse class="cls-4" cx="388.2" cy="302.93" rx="176.8" ry="123.9"/>
  </g>
  <g id="Layer_2" data-name="Layer 2">
    <g>
      <path class="cls-2" d="M394.13,428.83c-38.18-.74-82.62-4.79-122.8-29.25-45.65-27.8-65.75-63-61.45-107.63,3.02-31.42,20.06-57.32,52.07-79.18,35.24-24.06,76.51-35.75,126.16-35.75,10.31,0,21.28.51,32.6,1.51,50.12,4.44,89.5,21.43,120.39,51.94,22.06,21.79,33.42,49.35,32,77.61-1.46,28.92-16.04,55.97-41.06,76.15-36.14,29.15-81.22,43.73-137.84,44.59h-.07ZM393.79,184.35c-44.93,1.85-81.18,13.98-110.83,37.07-26.59,20.71-40.84,43.93-43.56,71-3.9,38.81,12.39,70.52,49.81,96.95,29.2,20.63,64.21,31.53,101.25,31.53,41.81,0,81.88-14.17,112.82-39.89,45.31-37.67,53.47-94.95,19.42-136.19-30.65-37.11-72.82-56.89-128.92-60.47Z"/>
      <path class="cls-4" d="M388.11,179.03c10.71,0,21.54.54,32.43,1.5,45.18,4,86.3,18.91,119.16,51.37,45.49,44.94,41.08,110.46-8.92,150.78-40.54,32.69-87.78,43.41-136.61,44.14-43.91-.85-85.11-6.62-121.8-28.95-39.25-23.9-65.21-56.91-60.5-105.73,3.29-34.22,23.69-58.93,51.21-77.72,38.45-26.25,80.84-35.4,125.04-35.4M390.47,422.89c41.01,0,81.96-13.63,114.1-40.36,46.18-38.4,54.47-96.87,19.68-139-34.41-41.67-80.44-58.03-130.44-61.19-42.57,1.74-79.87,12.41-112.08,37.49-23.72,18.48-41.21,41.42-44.32,72.37-4.38,43.56,16.9,74.95,50.65,98.79,30.27,21.38,66.36,31.9,102.4,31.9M388.11,175.03c-50.07,0-91.71,11.81-127.29,36.1-15.09,10.3-27.1,21.77-35.71,34.08-9.8,14.03-15.6,29.69-17.22,46.55-2.31,23.95,2.52,45.72,14.36,64.71,10.52,16.88,26.23,31.54,48.05,44.82,17.63,10.73,37.07,18.27,59.44,23.03,18.54,3.95,38.99,6.02,64.36,6.51h.07s.07,0,.07,0c27.03-.41,50.74-3.76,72.5-10.26,24.69-7.37,47.09-19.07,66.56-34.77,25.48-20.55,40.32-48.11,41.81-77.61,1.45-28.83-10.12-56.94-32.59-79.13-16.12-15.92-35.04-28.44-56.24-37.21-19.42-8.03-41.42-13.18-65.38-15.3-11.38-1.01-22.41-1.52-32.78-1.52h0ZM390.47,418.89c-36.62,0-71.23-10.78-100.1-31.16-36.78-25.98-52.8-57.09-48.98-95.12,2.66-26.49,16.66-49.27,42.8-69.62,29.69-23.13,64.52-34.77,109.58-36.64,55.47,3.55,97.14,23.09,127.4,59.74,33.32,40.35,25.26,96.44-19.16,133.37-30.58,25.43-70.2,39.43-111.55,39.43h0Z"/>
    </g>
    <path class="cls-1" d="M302.05,278.78v.02c0,.06,0,.13-.01.2,0,.07-.02.14-.03.21h0c-.02.11-.05.21-.09.31h0c-.1.3-.28.57-.49.79-.39.39-.91.63-1.5.63-.59,0-1.12-.24-1.5-.63-.29-.29-.49-.67-.57-1.08,0,0,0-.02,0-.03-.02-.07-.02-.13-.03-.2,0-.06-.01-.13-.01-.2,0-.07,0-.15.01-.22,0-.06.01-.13.03-.19.01-.06.03-.12.04-.18s.03-.12.06-.18c.1-.29.27-.56.48-.77.39-.39.92-.63,1.5-.63s1.12.24,1.5.63c.26.26.46.6.55.97.01.05.03.11.03.16.02.06.03.12.03.19,0,.06.01.13.01.2Z"/>
    <path class="cls-1" d="M292.63,278.8c0,.59-.24,1.12-.62,1.51-.39.39-.91.63-1.5.63-.59,0-1.12-.24-1.5-.63-.39-.39-.62-.92-.62-1.51s.23-1.13.62-1.52c.38-.39.91-.63,1.5-.63s1.12.24,1.5.63c.38.39.62.92.62,1.52Z"/>
    <path class="cls-1" d="M283.21,278.89c0,.6-.23,1.12-.62,1.52-.38.39-.91.63-1.5.63s-1.12-.24-1.5-.63c-.38-.39-.62-.92-.62-1.52s.24-1.12.62-1.51c.39-.39.91-.63,1.5-.63.59,0,1.12.24,1.5.63.39.39.62.92.62,1.51Z"/>
    <path class="cls-1" d="M311.47,278.81c0,.59-.24,1.12-.62,1.51-.39.39-.92.63-1.5.63s-1.12-.24-1.5-.63c-.38-.39-.62-.92-.62-1.51s.24-1.13.62-1.52c.39-.39.91-.63,1.5-.63s1.12.24,1.5.63c.38.39.62.92.62,1.52Z"/>
    <path class="cls-1" d="M335.02,222.33c0,.6-.23,1.13-.62,1.52s-.91.63-1.5.63-1.12-.24-1.5-.63c-.39-.39-.62-.92-.62-1.52s.23-1.12.62-1.51c.38-.39.91-.63,1.5-.63s1.12.24,1.5.63c.39.39.62.92.62,1.51Z"/>
    <path class="cls-1" d="M502.91,247.28h-17.38l-46.51-28.31h-72.86l-31.2,16.43h-41.29c8.12-5.82,16.55-10.7,25.25-14.72,33.45-15.43,63.7-14.92,77.35-14.51,12.39.36,30.44,2.12,51.52,8.73h-81.65c-6.02,3.02-12.04,6.04-18.06,9.06h-11.36,11.36l18.06-9.06h81.65c19.43,6.37,37.49,16.44,53.68,31.06.48.44.97.88,1.44,1.33Z"/>
    <path class="cls-1" d="M510.47,255h-28.33l-52.99-28.12h-60.47l-33.17,18.6h-54.44c2.23-2.01,4.65-4.06,7.27-6.11,1.8-1.42,3.58-2.74,5.32-3.98h41.29c10.4-5.48,20.8-10.95,31.2-16.43h72.86c15.5,9.44,31.01,18.87,46.51,28.31h17.38c1.81,1.68,3.65,3.49,5.49,5.46.71.76,1.4,1.51,2.07,2.27Z"/>
    <path class="cls-1" d="M373.88,240.15c0,.59-.23,1.12-.62,1.51-.38.39-.91.63-1.5.63-.59,0-1.12-.24-1.5-.63-.38-.39-.62-.92-.62-1.51s.24-1.13.62-1.52c.39-.39.91-.63,1.5-.63s1.12.24,1.5.63c.39.39.62.92.62,1.52Z"/>
    <path class="cls-1" d="M471.69,312.58c0,.6-.23,1.12-.62,1.52-.38.39-.91.63-1.5.63s-1.12-.24-1.5-.63c-.38-.39-.62-.92-.62-1.52s.24-1.12.62-1.51c.39-.39.91-.63,1.5-.63s1.12.24,1.5.63c.39.39.62.92.62,1.51Z"/>
    <path class="cls-1" d="M471.69,298.93c0,.6-.23,1.12-.62,1.51-.38.39-.91.63-1.5.63s-1.12-.24-1.5-.63c-.38-.39-.62-.92-.62-1.51s.24-1.12.62-1.52c.39-.39.91-.63,1.5-.63s1.12.24,1.5.63c.39.39.62.92.62,1.52Z"/>
    <path class="cls-1" d="M484.61,298.93c0,.6-.23,1.12-.62,1.51-.38.39-.91.63-1.5.63s-1.12-.24-1.5-.63c-.38-.39-.62-.92-.62-1.51s.24-1.12.62-1.52c.39-.39.91-.63,1.5-.63s1.12.24,1.5.63c.39.39.62.92.62,1.52Z"/>
    <path class="cls-1" d="M509.34,312.58c0,.6-.24,1.12-.62,1.52-.39.39-.91.63-1.5.63s-1.12-.24-1.5-.63c-.39-.39-.62-.92-.62-1.52s.23-1.12.62-1.51c.38-.39.91-.63,1.5-.63s1.12.24,1.5.63c.38.39.62.92.62,1.51Z"/>
    <path class="cls-1" d="M484.61,312.58c0,.6-.23,1.12-.62,1.52-.38.39-.91.63-1.5.63s-1.12-.24-1.5-.63c-.38-.39-.62-.92-.62-1.52s.24-1.12.62-1.51c.39-.39.91-.63,1.5-.63s1.12.24,1.5.63c.39.39.62.92.62,1.51Z"/>
    <path class="cls-1" d="M478.24,323.27c0,.6-.24,1.12-.62,1.52-.39.39-.91.63-1.5.63s-1.12-.24-1.5-.63c-.38-.39-.62-.92-.62-1.52s.24-1.12.62-1.52c.39-.39.91-.63,1.5-.63s1.12.24,1.5.63c.38.39.62.92.62,1.52Z"/>
    <path class="cls-1" d="M508.54,324.14c-1.43.84-2.96,1.6-2.96,1.6-2.32,1.16-4.41,1.99-6.08,2.57-2.24-4.71-4.48-9.41-6.71-14.12h-6.47,6.47l6.71,14.12c-3,1.03-6.56,2.02-10.63,2.7-5.52.93-10.42,1.03-14.37.84,1.06-1.57,2.13-3.14,3.19-4.71-1.06,1.57-2.13,3.14-3.19,4.71-15.5-.65-30.99-6.19-41.53-16.06-15.34-14.35-7.69-39.44,14.68-47.43,6.73-2.4,13.83-3.8,21.43-5.83-27.53-11.65-55.62-19.6-84.61-9.86-18.6,6.25-36.71,15.33-53.27,25.91-16.5,10.53-30.43,25.02-46.26,36.73-6.45,4.77-14.68,7.89-22.58,9.75-8.2,1.92-9.32-2.94-9.46-7.84h17.03l31.6-23.56v-10.98c0,3.66,0,7.32,0,10.98-10.53,7.85-21.07,15.7-31.6,23.56h-17.03c-.03-2.05-.07-4.09-.1-6.14h15.38l23.94-18.23v-10.18,10.18c-7.98,6.08-15.96,12.15-23.94,18.23h-15.38c-.34-4.73-.34-10.72.74-17.52.81-5.08,2.03-9.5,3.31-13.15h20.37-20.37c.93-2.61,2.12-5.49,3.64-8.55,1.59-3.19,3.26-5.97,4.86-8.35h26.27l19.35,5.54v5.9-5.9l-19.35-5.54h-26.27c1.02-1.53,2.14-3.1,3.37-4.7,2.24-2.93,4.5-5.51,6.67-7.77,24.7,0,49.4-.02,74.1-.03,6.05-3.47,12.09-6.94,18.14-10.41h0s-18.14,10.41-18.14,10.41l-74.1.03c.37-.38.74-.77,1.11-1.15,1.53-1.56,3.06-3.02,4.58-4.39h54.44c11.06-6.2,22.11-12.4,33.17-18.6h60.47l52.99,28.12h28.33c1.96,2.18,4.04,4.72,6.11,7.66,1.94,2.76,3.56,5.4,4.9,7.84h-37.15c-12.06,5.52-24.12,11.05-36.17,16.57v18.78l10.26,8.35h7.33-7.33l-10.26-8.35v-18.78c12.06-5.52,24.12-11.05,36.17-16.57h37.15c.35.65.71,1.33,1.05,2.02.91,1.82,1.69,3.6,2.37,5.3h-38.33c-8.53,3.7-17.06,7.4-25.59,11.11v11.62h4.76-4.76v-11.62c8.53-3.7,17.06-7.4,25.59-11.11h38.33c.48,1.21.95,2.5,1.39,3.86.83,2.57,1.43,4.99,1.86,7.22h-31.01c-1.96,3.88-3.92,7.76-5.88,11.64h-4.93,4.93l5.88-11.64h31.01c.07.37.14.75.21,1.13.27,1.52.47,3,.61,4.42-3.92.01-7.85.03-11.77.04-2.77,3.09-5.54,6.19-8.31,9.28,0,1.64-.02,3.27-.03,4.91l.03-4.91,8.31-9.28,11.77-.04c.03.26.05.51.07.77,1.29,14.39-9.31,22.36-20.49,28.92Z"/>
    <path class="cls-3" d="M513.13,350.37c-.31.53-.64,1.05-1.03,1.5-24.8,28.54-57.3,42.95-93.66,48.6-50.75,7.88-97.11-2.9-136.82-36.84-5.2-4.44-9.62-9.8-15.01-15.66-.81-.87-.27-2.28.92-2.4,30.8-3.13,51.52-21.95,72.61-40.4,18.16-15.89,36.39-31.98,61.63-35.84h.02c1.16-.18,2.02,1.08,1.45,2.11-3.19,5.75-6.83,11.17-8.52,17.14-5.09,18.01,7.17,38.76,27.19,50.23,20.63,11.81,42.63,16.02,65.94,14,7.51-.65,14.86-3.1,22.31-4.58.62-.13,1.27-.08,1.93.01,1.01.14,1.57,1.25,1.06,2.13Z"/>
  </g>
</svg>